<svg width="40" height="40" viewBox="0 0 40 40" fill="none" xmlns="http://www.w3.org/2000/svg">
<rect width="40" height="40" rx="12" fill="#FFE0AE"/>
<path d="M20 22.75C19.59 22.75 19.25 22.41 19.25 22V17C19.25 16.59 19.59 16.25 20 16.25C20.41 16.25 20.75 16.59 20.75 17V22C20.75 22.41 20.41 22.75 20 22.75Z" fill="#FF9600"/>
<path d="M20 26.0001C19.94 26.0001 19.87 25.9901 19.8 25.9801C19.74 25.9701 19.68 25.9501 19.62 25.9201C19.56 25.9001 19.5 25.8701 19.44 25.8301C19.39 25.7901 19.34 25.7501 19.29 25.7101C19.11 25.5201 19 25.2601 19 25.0001C19 24.7401 19.11 24.4801 19.29 24.2901C19.34 24.2501 19.39 24.2101 19.44 24.1701C19.5 24.1301 19.56 24.1001 19.62 24.0801C19.68 24.0501 19.74 24.0301 19.8 24.0201C19.93 23.9901 20.07 23.9901 20.19 24.0201C20.26 24.0301 20.32 24.0501 20.38 24.0801C20.44 24.1001 20.5 24.1301 20.56 24.1701C20.61 24.2101 20.66 24.2501 20.71 24.2901C20.89 24.4801 21 24.7401 21 25.0001C21 25.2601 20.89 25.5201 20.71 25.7101C20.66 25.7501 20.61 25.7901 20.56 25.8301C20.5 25.8701 20.44 25.9001 20.38 25.9201C20.32 25.9501 20.26 25.9701 20.19 25.9801C20.13 25.9901 20.06 26.0001 20 26.0001Z" fill="#FF9600"/>
<path d="M26.06 30.1598H13.94C11.99 30.1598 10.5 29.4498 9.73998 28.1698C8.98998 26.8898 9.08998 25.2398 10.04 23.5298L16.1 12.6298C17.1 10.8298 18.48 9.83984 20 9.83984C21.52 9.83984 22.9 10.8298 23.9 12.6298L29.96 23.5398C30.91 25.2498 31.02 26.8898 30.26 28.1798C29.5 29.4498 28.01 30.1598 26.06 30.1598ZM20 11.3398C19.06 11.3398 18.14 12.0598 17.41 13.3598L11.36 24.2698C10.68 25.4898 10.57 26.6098 11.04 27.4198C11.51 28.2298 12.55 28.6698 13.95 28.6698H26.07C27.47 28.6698 28.5 28.2298 28.98 27.4198C29.46 26.6098 29.34 25.4998 28.66 24.2698L22.59 13.3598C21.86 12.0598 20.94 11.3398 20 11.3398Z" fill="#FF9600"/>
</svg>
